<mxfile host="app.diagrams.net" modified="2021-08-20T07:59:14.595Z" agent="5.0 (Macintosh; Intel Mac OS X 10_15_7) AppleWebKit/537.36 (KHTML, like Gecko) Chrome/92.0.4515.107 Safari/537.36" etag="c_ZOhx6ciJ15cNeKD1Kg" version="14.9.8" type="github">
  <diagram name="Page-1" id="13e1069c-82ec-6db2-03f1-153e76fe0fe0">
    <mxGraphModel dx="2066" dy="1154" grid="1" gridSize="10" guides="1" tooltips="1" connect="1" arrows="1" fold="1" page="1" pageScale="1" pageWidth="1100" pageHeight="850" background="none" math="0" shadow="0">
      <root>
        <mxCell id="0" />
        <mxCell id="1" parent="0" />
        <mxCell id="V67h488wyW6hvviUl2gR-12" value="登录Action" style="shape=umlLifeline;perimeter=lifelinePerimeter;whiteSpace=wrap;html=1;container=1;collapsible=0;recursiveResize=0;outlineConnect=0;fillColor=#FFFFFF;size=30;" parent="1" vertex="1">
          <mxGeometry x="170" y="70" width="100" height="900" as="geometry" />
        </mxCell>
        <mxCell id="V67h488wyW6hvviUl2gR-17" value="" style="html=1;points=[];perimeter=orthogonalPerimeter;strokeColor=#000000;fillColor=#FFFFFF;" parent="V67h488wyW6hvviUl2gR-12" vertex="1">
          <mxGeometry x="40" y="50" width="20" height="90" as="geometry" />
        </mxCell>
        <mxCell id="V67h488wyW6hvviUl2gR-33" value="" style="html=1;points=[];perimeter=orthogonalPerimeter;strokeColor=#000000;fillColor=#FFFFFF;" parent="V67h488wyW6hvviUl2gR-12" vertex="1">
          <mxGeometry x="40" y="174" width="20" height="686" as="geometry" />
        </mxCell>
        <mxCell id="V67h488wyW6hvviUl2gR-39" value="6.根据账号密码查询" style="html=1;verticalAlign=bottom;endArrow=block;entryX=-0.05;entryY=0.089;entryDx=0;entryDy=0;entryPerimeter=0;" parent="V67h488wyW6hvviUl2gR-12" target="V67h488wyW6hvviUl2gR-36" edge="1">
          <mxGeometry width="80" relative="1" as="geometry">
            <mxPoint x="60" y="280" as="sourcePoint" />
            <mxPoint x="140" y="280" as="targetPoint" />
          </mxGeometry>
        </mxCell>
        <mxCell id="V67h488wyW6hvviUl2gR-13" value="UserService" style="shape=umlLifeline;perimeter=lifelinePerimeter;whiteSpace=wrap;html=1;container=1;collapsible=0;recursiveResize=0;outlineConnect=0;fillColor=#FFFFFF;size=30;" parent="1" vertex="1">
          <mxGeometry x="550" y="70" width="100" height="890" as="geometry" />
        </mxCell>
        <mxCell id="V67h488wyW6hvviUl2gR-47" value="" style="html=1;points=[];perimeter=orthogonalPerimeter;strokeColor=#000000;fillColor=#FFFFFF;" parent="V67h488wyW6hvviUl2gR-13" vertex="1">
          <mxGeometry x="40" y="450" width="20" height="80" as="geometry" />
        </mxCell>
        <mxCell id="V67h488wyW6hvviUl2gR-14" value="登录界面" style="shape=umlLifeline;perimeter=lifelinePerimeter;whiteSpace=wrap;html=1;container=1;collapsible=0;recursiveResize=0;outlineConnect=0;fillColor=#FFFFFF;size=30;" parent="1" vertex="1">
          <mxGeometry x="340" y="70" width="100" height="310" as="geometry" />
        </mxCell>
        <mxCell id="V67h488wyW6hvviUl2gR-26" value="" style="html=1;points=[];perimeter=orthogonalPerimeter;strokeColor=#000000;fillColor=#FFFFFF;" parent="V67h488wyW6hvviUl2gR-14" vertex="1">
          <mxGeometry x="40" y="100" width="20" height="80" as="geometry" />
        </mxCell>
        <mxCell id="V67h488wyW6hvviUl2gR-15" value="登录界面" style="shape=umlLifeline;perimeter=lifelinePerimeter;whiteSpace=wrap;html=1;container=1;collapsible=0;recursiveResize=0;outlineConnect=0;fillColor=#FFFFFF;size=30;" parent="1" vertex="1">
          <mxGeometry x="760" y="40" width="100" height="880" as="geometry" />
        </mxCell>
        <mxCell id="V67h488wyW6hvviUl2gR-53" value="" style="html=1;points=[];perimeter=orthogonalPerimeter;strokeColor=#000000;fillColor=#FFFFFF;" parent="V67h488wyW6hvviUl2gR-15" vertex="1">
          <mxGeometry x="40" y="730" width="20" height="80" as="geometry" />
        </mxCell>
        <mxCell id="V67h488wyW6hvviUl2gR-16" value="" style="shape=umlLifeline;participant=umlActor;perimeter=lifelinePerimeter;whiteSpace=wrap;html=1;container=1;collapsible=0;recursiveResize=0;verticalAlign=top;spacingTop=36;outlineConnect=0;strokeColor=#000000;fillColor=#000000;" parent="1" vertex="1">
          <mxGeometry x="40" y="50" width="40" height="900" as="geometry" />
        </mxCell>
        <mxCell id="V67h488wyW6hvviUl2gR-18" value="" style="html=1;points=[];perimeter=orthogonalPerimeter;strokeColor=#000000;fillColor=#FFFFFF;" parent="1" vertex="1">
          <mxGeometry x="50" y="120" width="20" height="50" as="geometry" />
        </mxCell>
        <mxCell id="V67h488wyW6hvviUl2gR-20" value="1.访问登录界面" style="html=1;verticalAlign=bottom;endArrow=block;" parent="1" source="V67h488wyW6hvviUl2gR-18" edge="1">
          <mxGeometry width="80" relative="1" as="geometry">
            <mxPoint x="120" y="170" as="sourcePoint" />
            <mxPoint x="207" y="120" as="targetPoint" />
            <Array as="points">
              <mxPoint x="130" y="120" />
            </Array>
          </mxGeometry>
        </mxCell>
        <mxCell id="V67h488wyW6hvviUl2gR-27" value="2.转至登录界面" style="html=1;verticalAlign=bottom;endArrow=block;entryX=0;entryY=0;" parent="1" source="V67h488wyW6hvviUl2gR-17" target="V67h488wyW6hvviUl2gR-26" edge="1">
          <mxGeometry relative="1" as="geometry">
            <mxPoint x="310" y="170" as="sourcePoint" />
          </mxGeometry>
        </mxCell>
        <mxCell id="V67h488wyW6hvviUl2gR-32" value="3.输入账号密码" style="edgeStyle=orthogonalEdgeStyle;html=1;align=left;spacingLeft=2;endArrow=block;rounded=0;" parent="1" edge="1">
          <mxGeometry x="-0.708" y="10" relative="1" as="geometry">
            <mxPoint x="400" y="190" as="sourcePoint" />
            <Array as="points">
              <mxPoint x="480" y="190" />
              <mxPoint x="480" y="210" />
            </Array>
            <mxPoint x="403" y="209" as="targetPoint" />
            <mxPoint as="offset" />
          </mxGeometry>
        </mxCell>
        <mxCell id="V67h488wyW6hvviUl2gR-28" value="4.登录" style="html=1;verticalAlign=bottom;endArrow=open;dashed=1;endSize=8;exitX=0;exitY=0.95;entryX=1.1;entryY=0.002;entryDx=0;entryDy=0;entryPerimeter=0;" parent="1" source="V67h488wyW6hvviUl2gR-26" target="V67h488wyW6hvviUl2gR-33" edge="1">
          <mxGeometry relative="1" as="geometry">
            <mxPoint x="310" y="246" as="targetPoint" />
          </mxGeometry>
        </mxCell>
        <mxCell id="V67h488wyW6hvviUl2gR-35" value="7.查询User表" style="edgeStyle=orthogonalEdgeStyle;html=1;align=left;spacingLeft=2;endArrow=block;rounded=0;entryX=1.15;entryY=0.488;entryDx=0;entryDy=0;entryPerimeter=0;" parent="1" edge="1">
          <mxGeometry x="-0.774" y="10" relative="1" as="geometry">
            <mxPoint x="610" y="360" as="sourcePoint" />
            <Array as="points">
              <mxPoint x="690" y="360" />
              <mxPoint x="690" y="380" />
            </Array>
            <mxPoint x="613" y="379.03999999999996" as="targetPoint" />
            <mxPoint as="offset" />
          </mxGeometry>
        </mxCell>
        <mxCell id="V67h488wyW6hvviUl2gR-36" value="" style="html=1;points=[];perimeter=orthogonalPerimeter;strokeColor=#000000;fillColor=#FFFFFF;" parent="1" vertex="1">
          <mxGeometry x="595" y="340" width="20" height="90" as="geometry" />
        </mxCell>
        <mxCell id="V67h488wyW6hvviUl2gR-44" value="5.获取账号密码" style="edgeStyle=orthogonalEdgeStyle;html=1;align=left;spacingLeft=2;endArrow=block;rounded=0;entryX=1.15;entryY=0.488;entryDx=0;entryDy=0;entryPerimeter=0;" parent="1" edge="1">
          <mxGeometry x="-0.774" y="10" relative="1" as="geometry">
            <mxPoint x="240" y="300" as="sourcePoint" />
            <Array as="points">
              <mxPoint x="320" y="300" />
              <mxPoint x="320" y="320" />
            </Array>
            <mxPoint x="243" y="319.03999999999996" as="targetPoint" />
            <mxPoint as="offset" />
          </mxGeometry>
        </mxCell>
        <mxCell id="V67h488wyW6hvviUl2gR-45" value="8.返回User表" style="html=1;verticalAlign=bottom;endArrow=open;dashed=1;endSize=8;" parent="1" edge="1">
          <mxGeometry relative="1" as="geometry">
            <mxPoint x="595" y="410" as="sourcePoint" />
            <mxPoint x="240" y="410" as="targetPoint" />
          </mxGeometry>
        </mxCell>
        <mxCell id="V67h488wyW6hvviUl2gR-46" value="9.从返回表获取User" style="edgeStyle=orthogonalEdgeStyle;html=1;align=left;spacingLeft=2;endArrow=block;rounded=0;entryX=1.15;entryY=0.488;entryDx=0;entryDy=0;entryPerimeter=0;" parent="1" edge="1">
          <mxGeometry x="-0.774" y="10" relative="1" as="geometry">
            <mxPoint x="230" y="480" as="sourcePoint" />
            <Array as="points">
              <mxPoint x="310" y="480" />
              <mxPoint x="310" y="500" />
            </Array>
            <mxPoint x="233" y="499.03999999999996" as="targetPoint" />
            <mxPoint as="offset" />
          </mxGeometry>
        </mxCell>
        <mxCell id="V67h488wyW6hvviUl2gR-48" value="10.根据id查询对应角色" style="html=1;verticalAlign=bottom;endArrow=block;entryX=0;entryY=0;" parent="1" target="V67h488wyW6hvviUl2gR-47" edge="1">
          <mxGeometry relative="1" as="geometry">
            <mxPoint x="235" y="520" as="sourcePoint" />
          </mxGeometry>
        </mxCell>
        <mxCell id="V67h488wyW6hvviUl2gR-49" value="12.返回角色列表" style="html=1;verticalAlign=bottom;endArrow=open;dashed=1;endSize=8;exitX=0;exitY=0.95;entryX=1.15;entryY=0.52;entryDx=0;entryDy=0;entryPerimeter=0;" parent="1" source="V67h488wyW6hvviUl2gR-47" target="V67h488wyW6hvviUl2gR-33" edge="1">
          <mxGeometry relative="1" as="geometry">
            <mxPoint x="240" y="600" as="targetPoint" />
            <Array as="points">
              <mxPoint x="250" y="601" />
            </Array>
          </mxGeometry>
        </mxCell>
        <mxCell id="V67h488wyW6hvviUl2gR-50" value="11.查询Role表" style="edgeStyle=orthogonalEdgeStyle;html=1;align=left;spacingLeft=2;endArrow=block;rounded=0;entryX=1.15;entryY=0.488;entryDx=0;entryDy=0;entryPerimeter=0;" parent="1" edge="1">
          <mxGeometry x="-0.774" y="10" relative="1" as="geometry">
            <mxPoint x="610" y="550" as="sourcePoint" />
            <Array as="points">
              <mxPoint x="690" y="550" />
              <mxPoint x="690" y="570" />
            </Array>
            <mxPoint x="613" y="569.04" as="targetPoint" />
            <mxPoint as="offset" />
          </mxGeometry>
        </mxCell>
        <mxCell id="V67h488wyW6hvviUl2gR-51" value="13.将用户存入session" style="edgeStyle=orthogonalEdgeStyle;html=1;align=left;spacingLeft=2;endArrow=block;rounded=0;entryX=1.15;entryY=0.488;entryDx=0;entryDy=0;entryPerimeter=0;" parent="1" edge="1">
          <mxGeometry x="-0.774" y="10" relative="1" as="geometry">
            <mxPoint x="230" y="640" as="sourcePoint" />
            <Array as="points">
              <mxPoint x="310" y="640" />
              <mxPoint x="310" y="660" />
            </Array>
            <mxPoint x="233" y="659.04" as="targetPoint" />
            <mxPoint as="offset" />
          </mxGeometry>
        </mxCell>
        <mxCell id="V67h488wyW6hvviUl2gR-52" value="14.将信息写入日志文件" style="edgeStyle=orthogonalEdgeStyle;html=1;align=left;spacingLeft=2;endArrow=block;rounded=0;entryX=1.15;entryY=0.488;entryDx=0;entryDy=0;entryPerimeter=0;" parent="1" edge="1">
          <mxGeometry x="-0.774" y="10" relative="1" as="geometry">
            <mxPoint x="230" y="730" as="sourcePoint" />
            <Array as="points">
              <mxPoint x="310" y="730" />
              <mxPoint x="310" y="750" />
            </Array>
            <mxPoint x="233" y="749.04" as="targetPoint" />
            <mxPoint as="offset" />
          </mxGeometry>
        </mxCell>
        <mxCell id="V67h488wyW6hvviUl2gR-54" value="15.跳转到系统首页" style="html=1;verticalAlign=bottom;endArrow=block;entryX=-0.25;entryY=0.275;entryDx=0;entryDy=0;entryPerimeter=0;exitX=1.05;exitY=0.796;exitDx=0;exitDy=0;exitPerimeter=0;" parent="1" target="V67h488wyW6hvviUl2gR-53" edge="1" source="V67h488wyW6hvviUl2gR-33">
          <mxGeometry width="80" relative="1" as="geometry">
            <mxPoint x="240" y="790" as="sourcePoint" />
            <mxPoint x="320" y="790" as="targetPoint" />
          </mxGeometry>
        </mxCell>
      </root>
    </mxGraphModel>
  </diagram>
</mxfile>
